<?xml version="1.0" standalone="no"?>
<!DOCTYPE svg PUBLIC "-//W3C//DTD SVG 20010904//EN"
 "http://www.w3.org/TR/2001/REC-SVG-20010904/DTD/svg10.dtd">
<svg version="1.0" xmlns="http://www.w3.org/2000/svg"
 width="428.000000pt" height="428.000000pt" viewBox="0 0 428.000000 428.000000"
 preserveAspectRatio="xMidYMid meet">
<metadata>
Created by potrace 1.11, written by Peter Selinger 2001-2013
</metadata>
<g transform="translate(0.000000,428.000000) scale(0.100000,-0.100000)"
fill="#000000" stroke="none">
<path d="M440 4256 c-219 -65 -366 -218 -427 -443 -4 -15 -9 -759 -10 -1653
-3 -1802 -7 -1684 64 -1830 50 -104 159 -213 263 -263 146 -71 27 -67 1835
-64 l1630 2 65 22 c186 64 328 205 392 392 l23 66 0 1650 0 1650 -22 70 c-64
203 -225 354 -440 412 -15 4 -764 9 -1663 10 l-1635 2 -75 -23z m1555 -301
c81 -13 189 -57 250 -102 33 -24 165 -189 165 -206 0 -3 -16 -1 -35 3 -26 6
-35 5 -35 -5 0 -18 -10 -24 -54 -31 -40 -6 -76 2 -76 18 0 5 9 17 21 27 20 16
20 17 -26 50 -34 24 -50 30 -58 22 -7 -7 -3 -18 18 -37 28 -25 28 -27 10 -40
-10 -8 -26 -14 -35 -14 -18 0 -60 35 -60 50 0 6 -7 10 -15 10 -8 0 -15 -7 -15
-15 0 -8 -7 -15 -15 -15 -8 0 -15 7 -15 15 0 8 -7 15 -15 15 -8 0 -15 -7 -15
-15 0 -8 -4 -16 -10 -16 -5 -1 -15 -2 -22 -3 -7 0 -16 -16 -22 -33 -9 -34 -26
-45 -26 -17 0 11 -6 15 -19 11 -13 -3 -22 3 -30 20 -11 24 -13 25 -31 8 -18
-16 -20 -16 -45 9 -21 21 -30 24 -50 16 -25 -10 -30 -4 -26 28 1 6 -7 12 -17
12 -10 0 -29 9 -41 19 -13 11 -29 17 -36 15 -7 -3 -27 2 -45 11 -40 20 -81 16
-95 -10 -5 -11 -21 -36 -34 -54 -21 -30 -25 -46 -26 -125 -1 -50 3 -109 7
-131 15 -70 79 -187 94 -172 10 10 44 -12 44 -28 0 -8 9 -15 19 -15 14 0 18
-5 14 -20 -6 -21 -4 -22 64 -24 35 -1 46 -19 16 -24 -10 -2 -22 -8 -27 -13 -5
-4 -17 -4 -27 2 -10 5 -29 7 -42 4 -16 -4 -30 -1 -40 10 -9 9 -21 14 -26 11
-8 -6 -69 21 -81 35 -3 3 -13 8 -22 12 -10 3 -18 11 -18 17 0 21 30 21 65 0
35 -21 47 -16 23 9 -10 10 -10 15 -2 18 8 2 -1 23 -22 54 -42 63 -52 100 -60
220 -4 69 -2 106 9 136 15 45 74 124 120 162 30 25 218 107 277 120 37 9 128
7 195 -4z m442 -407 c28 -29 70 -67 94 -83 51 -36 89 -93 69 -105 -7 -4 -27
-4 -44 1 -44 13 -84 11 -89 -3 -8 -27 6 -47 54 -72 99 -55 86 -96 -32 -103
-40 -2 -76 -8 -79 -13 -3 -4 -18 -12 -33 -15 -25 -7 -27 -5 -27 23 0 23 -6 32
-28 41 -16 7 -33 25 -39 41 -9 23 -15 28 -33 23 -11 -3 -28 -17 -37 -30 -12
-18 -22 -23 -40 -18 -18 4 -23 1 -23 -14 0 -53 -33 -25 -128 109 -86 121 -119
143 -182 122 -27 -10 -30 -9 -30 9 0 13 12 25 35 35 33 13 37 13 72 -10 21
-13 47 -34 58 -46 47 -53 178 -119 211 -106 11 4 14 15 10 38 -5 35 -27 56
-66 64 -53 12 -57 15 -33 31 17 12 20 19 13 33 -7 13 -4 20 14 29 20 11 30 9
73 -13 50 -26 86 -31 178 -24 47 4 59 30 23 49 -27 14 -48 41 -42 51 11 18 34
5 81 -44z m-627 -169 c0 -5 -4 -9 -10 -9 -5 0 -10 7 -10 16 0 8 5 12 10 9 6
-3 10 -10 10 -16z m1240 -24 c0 -13 -4 -27 -10 -30 -5 -3 -10 0 -10 8 0 8 -6
17 -14 20 -9 4 -12 14 -9 26 4 17 9 19 24 10 11 -5 19 -20 19 -34z m-1187 1
c-7 -43 9 -70 58 -102 23 -14 39 -28 36 -30 -7 -8 -84 33 -107 56 -29 29 -25
110 5 110 10 0 12 -10 8 -34z m121 -41 c3 -8 1 -15 -3 -15 -5 0 -11 7 -15 15
-3 8 -1 15 3 15 5 0 11 -7 15 -15z m-654 -125 c-20 -12 -33 -1 -19 16 9 11 15
12 23 4 8 -8 7 -13 -4 -20z m718 -22 c6 -8 6 -22 1 -35 -12 -32 -70 -41 -115
-17 l-35 19 32 6 c17 4 38 14 47 23 19 19 56 21 70 4z m999 -30 c17 -34 22
-67 13 -73 -11 -7 -25 20 -35 63 -8 37 6 43 22 10z m218 -17 c34 -15 69 -36
79 -46 12 -13 31 -18 56 -17 21 2 41 -2 45 -8 4 -6 -6 -10 -24 -10 -34 0 -41
-7 -32 -34 4 -10 5 -31 3 -47 -4 -27 -5 -28 -29 -12 -24 16 -28 15 -121 -33
-77 -41 -98 -56 -105 -80 -12 -35 -23 -44 -59 -44 -31 0 -36 11 -13 30 24 20
17 42 -30 95 -57 63 -59 97 -8 124 29 15 60 14 66 -1 2 -7 -9 -28 -26 -45
l-31 -33 31 -42 c42 -58 62 -59 120 -5 27 24 69 55 95 70 58 34 65 44 42 66
-47 43 -175 83 -190 60 -3 -5 -10 -9 -15 -9 -6 0 2 11 17 25 34 32 55 31 129
-4z m-1928 6 c17 -7 55 -34 83 -60 63 -57 88 -71 159 -86 108 -23 189 -89 179
-145 -3 -17 4 -30 26 -47 17 -13 48 -41 69 -62 31 -31 37 -44 33 -63 -9 -36 9
-62 49 -70 19 -3 38 -6 42 -6 28 1 28 -21 2 -73 -26 -52 -27 -58 -14 -94 7
-21 31 -70 53 -109 22 -39 43 -84 47 -102 4 -17 26 -72 50 -123 93 -201 145
-322 145 -341 0 -9 6 -15 13 -14 7 2 13 -9 15 -25 2 -15 12 -32 23 -37 10 -6
19 -17 19 -25 0 -17 -26 -20 -35 -5 -3 6 -11 10 -17 10 -14 0 11 -37 56 -82
22 -22 36 -46 36 -62 0 -57 77 -47 98 14 18 50 -8 81 -38 46 -15 -19 -37 -10
-55 23 -16 32 -14 283 3 303 13 17 5 107 -19 204 -7 25 -9 47 -6 50 12 12 27
-8 27 -37 0 -22 5 -29 19 -29 11 0 23 -5 26 -10 5 -8 11 -8 19 0 10 7 20 5 37
-8 63 -49 81 -32 195 184 82 155 115 203 164 237 42 29 55 22 31 -19 -12 -19
-21 -43 -21 -52 1 -22 126 -112 157 -112 13 0 35 11 48 24 l25 25 15 -22 c19
-27 19 -53 -1 -108 -17 -50 -40 -145 -49 -204 -20 -131 -47 -222 -84 -284 -35
-60 -95 -129 -149 -173 -15 -12 -20 -25 -17 -49 7 -49 175 -345 175 -306 0 16
89 -19 127 -50 40 -33 50 -37 111 -38 62 -2 73 -6 142 -50 106 -67 182 -118
200 -132 62 -49 80 -67 94 -97 20 -42 23 -139 6 -181 -7 -16 -14 -57 -15 -90
-4 -74 -13 -99 -59 -152 -39 -45 -107 -83 -148 -83 -20 0 -29 9 -43 40 -11 24
-25 40 -37 41 -10 1 -28 2 -40 3 -13 1 -44 -4 -70 -10 -27 -7 -50 -9 -53 -4
-6 9 21 33 60 53 49 25 96 77 92 102 -7 54 -47 65 -87 25 -18 -18 -30 -21 -67
-17 -25 3 -52 12 -61 21 -15 15 -14 17 16 28 18 7 32 17 32 23 -1 30 -96 105
-134 105 -12 0 -48 -14 -80 -31 -70 -37 -104 -48 -171 -55 -111 -11 -139 -16
-166 -29 -40 -21 -43 -32 -12 -51 15 -9 40 -25 55 -35 16 -11 29 -15 33 -9 13
21 24 9 13 -14 -22 -49 -166 -90 -310 -89 -44 0 -68 7 -111 31 l-54 31 -41
-20 c-52 -26 -59 -45 -23 -63 22 -12 87 -15 332 -16 167 0 338 -2 379 -5 85
-5 214 -25 207 -31 -5 -5 -19 -7 -137 -19 -36 -3 -83 -8 -105 -10 -257 -28
-769 -27 -905 0 -14 3 -36 7 -50 10 -45 8 -104 31 -107 42 -3 9 13 19 47 28 3
1 14 5 25 10 184 74 237 96 270 115 79 44 119 97 104 138 -10 27 -23 26 -165
-8 -97 -24 -108 -24 -137 -6 -27 18 -75 15 -145 -8 -58 -20 -75 -14 -61 21 10
26 129 85 269 133 102 35 153 58 212 98 45 29 49 46 11 38 -16 -3 -39 -8 -53
-10 -14 -2 -65 -12 -114 -21 -60 -11 -108 -14 -148 -10 -56 7 -65 5 -132 -29
-39 -20 -91 -40 -116 -44 -43 -8 -151 5 -177 21 -6 4 -39 9 -74 12 -73 6 -115
29 -211 120 -105 100 -164 146 -205 160 -21 7 -41 11 -45 9 -3 -2 0 -28 8 -57
l13 -52 -75 80 c-93 98 -177 222 -207 307 -18 50 -22 82 -21 159 2 146 17 167
52 71 29 -78 31 -99 15 -151 -7 -25 -10 -54 -7 -65 10 -34 79 -120 108 -136
25 -13 29 -13 41 3 13 18 7 62 -12 91 -28 42 46 -49 132 -164 33 -43 64 -79
68 -80 5 0 21 -8 35 -18 15 -11 59 -36 97 -57 39 -21 80 -45 93 -53 21 -13 22
-13 15 4 -13 37 -75 122 -193 269 -23 28 -48 63 -56 79 -9 16 -20 34 -25 40
-5 6 -37 56 -71 111 -34 55 -78 123 -98 150 -49 67 -76 115 -84 145 -7 23 -5
22 26 -10 18 -19 45 -51 60 -70 131 -172 208 -258 426 -474 137 -137 257 -253
266 -258 12 -7 16 -4 16 11 0 27 18 30 68 13 34 -11 51 -12 92 -2 67 16 103
45 90 71 -6 10 -23 25 -38 33 -35 20 -25 20 28 1 44 -16 97 -19 124 -9 43 17
-5 63 -114 112 -116 52 -245 100 -245 92 0 -2 -20 7 -45 20 -77 40 -28 33 101
-14 111 -40 329 -106 351 -106 4 0 8 4 8 9 0 5 -36 24 -80 42 -44 19 -90 42
-102 51 -23 17 -23 17 12 7 66 -19 75 -21 111 -26 47 -6 55 13 25 58 -13 20
-22 46 -20 64 1 25 -28 98 -47 115 -3 3 -36 41 -73 85 -60 71 -67 84 -63 115
2 24 -4 49 -20 79 -13 24 -23 61 -23 83 0 31 -6 45 -31 67 -29 26 -29 29 -10
34 18 4 19 9 11 37 -8 29 -65 112 -102 151 -29 30 -76 96 -96 133 -21 38 -21
40 -3 65 46 66 46 66 -19 110 -33 23 -64 41 -68 41 -5 0 -15 -11 -22 -25 -15
-29 -23 -31 -40 -10 -18 21 -47 19 -126 -10 -38 -14 -94 -28 -124 -31 -30 -3
-65 -7 -77 -9 -13 -2 -25 0 -28 5 -6 9 126 60 156 60 27 0 121 41 113 49 -3 3
-18 6 -32 7 -60 2 -72 4 -72 14 0 6 6 10 13 10 7 0 46 27 87 61 41 34 86 66
100 71 14 6 68 12 120 14 76 3 98 7 108 21 10 14 9 20 -7 37 -16 16 -33 19
-91 18 -202 -3 -314 -45 -508 -187 -79 -58 -160 -114 -180 -125 -37 -20 -37
-20 -40 -1 -4 22 46 131 60 131 4 0 8 5 8 11 0 6 6 16 13 23 6 8 31 35 54 62
22 27 56 65 73 84 18 19 64 78 102 130 95 128 110 141 193 168 40 14 64 13
102 -1z m1231 -22 c7 -14 12 -35 12 -46 0 -17 -3 -18 -21 -9 -26 14 -59 47
-59 59 0 5 6 12 13 14 27 12 44 6 55 -18z m-782 -38 c-3 -12 -5 -25 -5 -28 -1
-11 -41 -18 -46 -9 -3 5 4 15 15 23 11 7 17 16 14 20 -9 9 6 28 17 22 5 -3 7
-16 5 -28z m-82 -15 c-7 -24 -79 -29 -88 -6 -6 16 2 17 54 3 8 -2 15 2 16 9 3
22 4 23 13 18 5 -3 7 -14 5 -24z m387 -74 c16 -27 25 -48 19 -48 -11 0 -55 75
-64 110 -6 23 -6 23 5 5 6 -11 24 -41 40 -67z m-211 42 c24 -17 29 -18 34 -5
3 8 12 15 21 15 16 0 16 1 19 -51 1 -20 7 -43 14 -51 6 -8 9 -18 4 -22 -4 -4
1 -12 10 -17 10 -5 15 -16 12 -23 -4 -10 10 -17 48 -26 29 -7 56 -18 60 -24 6
-10 4 -90 -4 -128 -2 -8 8 -14 25 -16 21 -3 27 -9 27 -28 0 -14 15 -40 35 -61
32 -33 33 -38 19 -54 -14 -15 -12 -18 12 -36 27 -20 27 -20 5 -26 -14 -3 -29
1 -39 11 -9 9 -28 16 -41 14 -32 -5 -73 7 -66 18 3 6 -1 10 -9 10 -32 0 -25
20 14 40 l41 21 -18 30 c-10 16 -34 37 -55 47 -42 19 -48 31 -18 39 26 7 25
19 -5 54 -25 31 -40 37 -40 17 0 -32 -26 -12 -51 39 -15 32 -32 61 -37 64 -5
3 -10 19 -12 35 -1 16 -16 40 -33 55 -30 27 -34 42 -19 67 11 16 14 15 47 -8z
m638 -15 c31 0 48 -5 56 -17 13 -22 3 -31 -33 -30 -35 1 -77 26 -93 56 -10 20
-10 20 7 6 10 -8 38 -15 63 -15z m45 -94 c-9 -34 -38 -51 -128 -73 -83 -21
-91 -25 -147 -81 -45 -45 -56 -52 -44 -30 19 37 79 91 120 108 17 8 51 16 76
20 61 9 96 30 104 60 4 14 11 23 15 20 5 -3 7 -14 4 -24z m-325 2 c-10 -2 -26
-2 -35 0 -10 3 -2 5 17 5 19 0 27 -2 18 -5z m998 -210 c-3 -26 -6 -56 -6 -65
-2 -31 -18 -29 -29 4 -9 25 -8 35 4 48 8 9 15 30 17 48 1 19 6 28 11 23 5 -5
6 -31 3 -58z m-974 -58 c6 -14 17 -25 25 -25 14 0 34 -39 27 -51 -2 -4 3 -10
12 -13 9 -4 12 -11 8 -18 -5 -7 -8 -21 -9 -30 0 -10 -3 -18 -7 -18 -5 0 -12 0
-18 0 -5 0 -10 5 -10 11 0 7 -8 18 -17 25 -10 7 -18 25 -18 41 0 21 -5 29 -23
31 -25 4 -46 36 -38 58 9 24 55 17 68 -11z m-1073 -198 c-1 -27 -55 -55 -116
-61 -34 -3 -72 -10 -85 -15 -14 -5 -30 -6 -37 -1 -9 5 21 19 80 39 52 17 99
35 106 39 20 12 53 12 52 -1z m1153 -77 c18 -32 28 -40 46 -37 12 2 22 -1 23
-7 0 -6 3 -24 5 -40 3 -18 -1 -35 -12 -47 -23 -26 -34 -24 -34 6 0 37 -17 30
-31 -12 -15 -48 -27 -63 -49 -63 -10 0 -20 -9 -23 -21 -3 -12 -11 -19 -19 -16
-13 5 -14 10 -4 37 8 22 -41 55 -59 40 -18 -15 -65 -9 -77 10 -6 9 -6 25 1 43
11 27 11 27 41 12 36 -19 48 -14 48 19 0 13 17 45 38 70 49 59 75 61 106 6z
m111 -127 c4 -3 2 -12 -4 -20 -9 -10 -8 -17 1 -28 8 -10 9 -15 2 -15 -19 0
-31 34 -23 65 2 7 16 6 24 -2z m-1719 -158 c3 -8 1 -15 -5 -15 -6 0 -17 7 -25
15 -14 13 -13 15 4 15 11 0 22 -7 26 -15z m76 -112 c57 -30 75 -53 42 -53 -33
0 -50 10 -77 46 -14 19 -24 34 -23 34 2 0 28 -12 58 -27z m925 -813 c3 -5 1
-10 -4 -10 -6 0 -11 5 -11 10 0 6 2 10 4 10 3 0 8 -4 11 -10z m-139 -571 c69
-34 87 -49 55 -49 -32 0 -66 16 -102 49 -42 39 -34 39 47 0z m394 -19 c16 -10
10 -12 -30 -12 -48 0 -61 3 -55 12 8 13 65 13 85 0z m10 -49 c0 -17 -22 -24
-77 -22 -64 1 -92 13 -48 21 56 10 125 10 125 1z m1305 -199 c18 -10 18 -12
-10 -13 -66 -3 -205 -4 -205 -1 0 2 15 9 33 17 38 16 153 14 182 -3z"/>
</g>
</svg>
